<svg width="71" height="68" viewBox="0 0 71 68" fill="none" xmlns="http://www.w3.org/2000/svg">
<g id="Group">
<path id="Vector" d="M18.2973 3.3381C21.2809 1.16409 24.9233 -0.00847792 28.666 0.000169487C29.716 0.000169485 30.5516 0.526324 31.0373 0.888319C31.5798 1.30082 32.0873 1.82698 32.5423 2.35314C32.8649 2.73013 33.0412 3.20334 33.041 3.69167L33.041 18.9418L28.2941 18.9418C27.7781 17.5375 26.7627 16.354 25.4275 15.6004C24.0922 14.8468 22.523 14.5716 20.9972 14.8234C19.4715 15.0753 18.0873 15.838 17.0895 16.9768C16.0917 18.1155 15.5445 19.557 15.5445 21.0464C15.5445 22.5358 16.0917 23.9772 17.0895 25.116C18.0873 26.2547 19.4715 27.0174 20.9972 27.2693C22.523 27.5212 24.0922 27.246 25.4275 26.4924C26.7627 25.7387 27.7781 24.5552 28.2941 23.151L33.041 23.151L33.041 62.781C33.0412 63.0926 32.9695 63.4004 32.8311 63.6821C32.6926 63.9638 32.4909 64.2124 32.2404 64.41C30.2191 66.0011 27.5154 67.348 24.291 67.348C19.1023 67.348 15.2391 64.8309 12.741 61.8213C10.9462 59.6769 9.71691 57.1469 9.15789 54.4467C7.45812 54.0107 5.88211 53.2122 4.54664 52.1106C2.13164 50.1196 0.228515 46.8911 0.228515 42.0926C0.228515 39.748 0.39039 37.6308 0.753515 35.7787L14.4473 35.7787C17.2298 35.7787 19.5223 37.7781 19.8723 40.3626C18.4173 40.8692 17.1953 41.854 16.4218 43.1433C15.6483 44.4326 15.3732 45.9434 15.645 47.4089C15.9169 48.8744 16.7182 50.2003 17.9074 51.1526C19.0967 52.1049 20.5974 52.6223 22.1447 52.6134C23.6919 52.6045 25.1861 52.0699 26.3635 51.104C27.5408 50.1381 28.3256 48.803 28.5792 47.3345C28.8328 45.866 28.539 44.3585 27.7495 43.0782C26.9601 41.7979 25.7259 40.8271 24.2648 40.3373C24.0804 37.9536 22.966 35.7252 21.1451 34.099C19.3243 32.4729 16.9317 31.5693 14.4473 31.5695L2.15789 31.5695C2.82727 30.3151 3.72414 29.2544 4.89226 28.5009C5.18774 28.3127 5.49782 28.1467 5.81977 28.0042C4.57727 24.5022 4.90102 20.4024 6.09976 17.1823C6.86539 15.1113 8.08164 13.154 9.75289 11.8492C10.8554 10.9863 12.1679 10.418 13.6029 10.3086C14.2329 7.43369 16.0048 5.05547 18.3016 3.3381L18.2973 3.3381ZM37.416 52.6157L40.6973 52.6157C43.308 52.6157 45.8118 51.6179 47.6578 49.8418C49.5039 48.0656 50.541 45.6567 50.541 43.1449L50.541 35.4209C52.0005 34.9245 53.2307 33.9476 54.014 32.6629C54.7972 31.3782 55.0833 29.8684 54.8215 28.4005C54.5597 26.9325 53.767 25.6009 52.5834 24.6408C51.3998 23.6808 49.9016 23.1543 48.3535 23.1543C46.8054 23.1543 45.3072 23.6808 44.1236 24.6408C42.94 25.6009 42.1473 26.9325 41.8855 28.4005C41.6237 29.8684 41.9098 31.3782 42.6931 32.6629C43.4764 33.9476 44.7065 34.9245 46.166 35.4209L46.166 43.1449C46.166 46.0493 43.716 48.4064 40.6973 48.4064L37.416 48.4064L37.416 3.69167C37.4158 3.20334 37.5921 2.73013 37.9148 2.35314C38.3654 1.82698 38.8773 1.30082 39.4198 0.888319C39.901 0.526324 40.7366 0.000169457 41.791 0.000169455C45.5337 -0.00847797 49.1761 1.16409 52.1598 3.3381C54.4566 5.05547 56.2285 7.43369 56.8541 10.3086C58.2891 10.4138 59.6016 10.9863 60.7041 11.8492C62.3754 13.154 63.5916 15.1113 64.3573 17.1823C65.556 20.4024 65.8798 24.5064 64.6373 28C64.9523 28.1432 65.2629 28.3115 65.5648 28.5052C66.7679 29.2754 67.6823 30.3783 68.356 31.6789C69.6816 34.2255 70.2285 37.7781 70.2285 42.0926C70.2285 46.8953 68.3254 50.1196 65.9104 52.1106C64.5749 53.2122 62.9989 54.0107 61.2991 54.4467C60.8616 56.7955 59.6366 59.5146 57.716 61.8213C55.2223 64.8309 51.3548 67.348 46.166 67.348C42.946 67.348 40.2379 66.0011 38.221 64.41C37.9697 64.2128 37.7672 63.9644 37.6279 63.6827C37.4887 63.4009 37.4163 63.093 37.416 62.781L37.416 52.6157ZM22.1035 18.9418C21.5234 18.9418 20.967 19.1635 20.5567 19.5582C20.1465 19.9529 19.916 20.4882 19.916 21.0464C19.916 21.6046 20.1465 22.1399 20.5567 22.5346C20.967 22.9293 21.5234 23.151 22.1035 23.151C22.6837 23.151 23.2401 22.9293 23.6503 22.5346C24.0605 22.1399 24.291 21.6046 24.291 21.0464C24.291 20.4882 24.0605 19.9529 23.6503 19.5582C23.2401 19.1635 22.6837 18.9418 22.1035 18.9418ZM22.1035 44.1972C21.5234 44.1972 20.967 44.4189 20.5567 44.8136C20.1465 45.2083 19.916 45.7436 19.916 46.3018C19.916 46.86 20.1465 47.3953 20.5567 47.79C20.967 48.1847 21.5234 48.4064 22.1035 48.4064C22.6837 48.4064 23.2401 48.1847 23.6503 47.79C24.0605 47.3953 24.291 46.86 24.291 46.3018C24.291 45.7436 24.0605 45.2083 23.6503 44.8136C23.2401 44.4189 22.6837 44.1972 22.1035 44.1972ZM48.3535 31.5695C48.9337 31.5695 49.4901 31.3477 49.9003 30.953C50.3105 30.5584 50.541 30.023 50.541 29.4649C50.541 28.9067 50.3105 28.3714 49.9003 27.9767C49.4901 27.582 48.9337 27.3602 48.3535 27.3602C47.7733 27.3602 47.2169 27.582 46.8067 27.9767C46.3965 28.3714 46.166 28.9067 46.166 29.4649C46.166 30.023 46.3965 30.5584 46.8067 30.953C47.2169 31.3477 47.7733 31.5695 48.3535 31.5695Z" fill="black"/>
</g>
</svg>
