<svg xmlns="http://www.w3.org/2000/svg" width="71" height="68" viewBox="50 50 71 68" fill="none">

    <path d="M90.4049 83.5336C89.7213 84.1913 88.6134 84.1913 87.9298 83.5336L86.6927 82.3435C86.0091 81.6858 86.0091 80.6198 86.6927 79.9621L90.5996 76.2043L86.6938 72.4455C86.0102 71.7878 86.0102 70.7218 86.6938 70.0641L87.9309 68.8739C88.6145 68.2162 89.7224 68.2162 90.406 68.8739L96.787 75.0131C97.4705 75.6708 97.4705 76.7368 96.787 77.3945L90.4049 83.5336ZM79.9038 82.3445L78.6668 83.5347C77.9832 84.1924 76.8752 84.1924 76.1916 83.5347L69.8107 77.3955C69.1271 76.7378 69.1271 75.6718 69.8107 75.0142L76.1916 68.875C76.8752 68.2173 77.9832 68.2173 78.6668 68.875L79.9038 70.0651C80.5874 70.7228 80.5874 71.7888 79.9038 72.4465L75.998 76.2043L79.9038 79.9632C80.5874 80.6209 80.5874 81.6868 79.9038 82.3445ZM50.0488 99.776H76.5679C76.6488 101.861 78.1768 103.143 80.1488 103.143H86.7988C88.843 103.143 90.4104 101.305 90.383 99.776H116.549C117.511 99.776 118.299 100.534 118.299 101.46V103.143C118.299 106.848 115.149 109.878 111.299 109.878H55.2988C51.4488 109.878 48.2988 106.848 48.2988 103.143V101.46C48.2988 100.534 49.0863 99.776 50.0488 99.776ZM55.2988 61.0511C55.2988 58.273 57.6613 56 60.5488 56H106.049C108.936 56 111.299 58.273 111.299 61.0511V96.4086H55.2988V61.0511ZM62.2988 89.6739H104.299V62.7348H62.2988V89.6739Z" fill="black"/>

</svg>