<svg xmlns="http://www.w3.org/2000/svg" width="71" height="75" viewBox="50 45 71 80" fill="none">

    <path d="M97.7285 74.2556L69.7285 57.4185M68.8535 57.4185L53.9785 65.837V99.5111L68.8535 107.93L83.7285 116.348L98.6035 107.93L113.479 99.5111V65.837L98.6035 57.4185L83.7285 49L68.8535 57.4185ZM113.479 65.837L83.7285 82.6741L113.479 65.837ZM53.9785 65.837L83.7285 82.6741L53.9785 65.837ZM83.7285 116.348V82.6741V116.348ZM97.7285 74.2556V107.93V74.2556ZM113.479 82.6741L83.7285 99.5111L113.479 82.6741ZM83.7285 99.5111L53.9785 82.6741L83.7285 99.5111ZM69.7285 107.93V74.2556V107.93ZM97.7285 57.4185L69.7285 74.2556L97.7285 57.4185Z" stroke="black" stroke-width="5" stroke-linecap="round" stroke-linejoin="round"/>

</svg>