<svg xmlns="http://www.w3.org/2000/svg" width="71" height="68" viewBox="50 50 71 68" fill="none">
    <path d="M117.674 112.859L107.395 102.983V64.9889L102.54 56.3576C102.182 55.6996 101.645 55.1486 100.987 54.7643C100.328 54.3799 99.5738 54.1767 98.8047 54.1767C98.0356 54.1767 97.2811 54.3799 96.6227 54.7643C95.9643 55.1486 95.427 55.6996 95.0689 56.3576L90.51 65.0093V86.7405L51.907 49.6036C51.6118 49.3159 51.2346 49.1196 50.8236 49.0399C50.4126 48.9602 49.9863 49.0006 49.5991 49.156C49.2119 49.3114 48.8814 49.5748 48.6497 49.9125C48.4179 50.2503 48.2954 50.6471 48.2979 51.0524V67.5395H52.8779V70.8043H48.2979V83.8634H52.8779V87.1282H48.2979V100.697H52.8779V103.962H48.2979V114.307C48.2979 114.849 48.5203 115.368 48.9161 115.75C49.3119 116.133 49.8487 116.348 50.4085 116.348H116.175C116.594 116.35 117.005 116.232 117.354 116.008C117.703 115.784 117.976 115.464 118.137 115.09C118.297 114.716 118.339 114.303 118.257 113.906C118.174 113.509 117.971 113.144 117.674 112.859ZM65.1827 100.187V81.7005L84.3259 100.187H65.1827ZM103.174 104.493H94.7312V99.5343H103.174V104.493ZM103.174 96.3307H94.7312V66.0091L98.8258 58.3165L103.174 66.0295V96.3307Z" fill="black"/>
</svg>