<svg xmlns="http://www.w3.org/2000/svg" width="75" height="70" viewBox="49 49 71 68" fill="none">

    <path d="M83.9785 116.349C88.7181 116.349 93.2526 115.461 97.582 113.685C101.911 111.909 105.637 109.519 108.759 106.516C111.881 103.512 114.364 99.928 116.21 95.7625C118.056 91.5971 118.979 87.2344 118.979 82.6743C118.979 78.1143 118.056 73.7515 116.21 69.5861C114.364 65.4207 111.881 61.8362 108.759 58.8327C105.637 55.8292 101.911 53.4396 97.582 51.6638C93.2526 49.888 88.7181 49.0001 83.9785 49.0001C79.2389 49.0001 74.7044 49.888 70.375 51.6638C66.0456 53.4396 62.32 55.8292 59.1982 58.8327C56.0765 61.8362 53.5928 65.4207 51.7471 69.5861C49.9014 73.7515 48.9785 78.1143 48.9785 82.6743C48.9785 87.2344 49.9014 91.5971 51.7471 95.7625C53.5928 99.928 56.0765 103.512 59.1982 106.516C62.32 109.519 66.0456 111.909 70.375 113.685C74.7044 115.461 79.2389 116.349 83.9785 116.349ZM79.6035 109.706C73.4967 108.785 68.2559 106.22 63.8809 102.011C59.5059 97.8014 56.8398 92.759 55.8828 86.8836H64.8379C65.6582 90.4352 67.4128 93.4935 70.1016 96.0585C72.7904 98.6235 75.9577 100.323 79.6035 101.156V109.706ZM81.9785 80.7501L71.6055 78.465C72.2891 76.6673 73.3258 75.0998 74.7158 73.7625C76.1058 72.4252 77.735 71.4277 79.6035 70.77L81.9785 80.7501ZM71.6055 86.8836L81.9785 85.5607L79.6035 94.5129C77.735 93.899 76.1058 92.9125 74.7158 91.5533C73.3258 90.194 72.2891 88.6375 71.6055 86.8836ZM86.4785 85.5607L96.3516 86.8836C95.668 88.6375 94.6312 90.194 93.2412 91.5533C91.8512 92.9125 90.222 93.899 88.3535 94.5129L86.4785 85.5607ZM88.3535 109.706V101.156C92.0449 100.323 95.2236 98.6235 97.8896 96.0585C100.556 93.4935 102.299 90.4352 103.119 86.8836H112.074C111.117 92.759 108.451 97.8014 104.076 102.011C99.7012 106.22 94.4603 108.785 88.3535 109.706ZM88.3535 55.6429C94.4603 56.5637 99.7012 59.1287 104.076 63.338C108.451 67.5472 111.117 72.5896 112.074 78.465H103.119C102.299 74.9135 100.556 71.8442 97.8896 69.2573C95.2236 66.6703 92.0449 64.9822 88.3535 64.193V55.6429ZM96.3516 78.465L86.4785 80.7501L88.3535 70.77C90.222 71.4277 91.8512 72.4252 93.2412 73.7625C94.6312 75.0998 95.668 76.6673 96.3516 78.465ZM79.6035 55.6429V64.193C75.9577 64.9822 72.7904 66.6703 70.1016 69.2573C67.4128 71.8442 65.6582 74.9135 64.8379 78.465H55.8828C56.8398 72.5896 59.5059 67.5472 63.8809 63.338C68.2559 59.1287 73.4967 56.5637 79.6035 55.6429Z" fill="black"/>

</svg>