<svg xmlns="http://www.w3.org/2000/svg" width="80" height="68" viewBox="50 50 65 68" fill="none">

    <path d="M100.798 101.799H96.4229V106.033C96.4229 108.37 95.5684 110.365 93.8594 112.019C92.1504 113.673 90.0882 114.499 87.6729 114.499H83.2979C80.8825 114.499 78.8203 113.673 77.1113 112.019C75.4023 110.365 74.5479 108.37 74.5479 106.033V101.799H63.6104C59.3721 101.799 55.7604 100.355 52.7754 97.467C49.7904 94.5786 48.2979 91.0839 48.2979 86.9829C48.2979 84.4694 48.9131 82.1323 50.1436 79.9715C51.374 77.8108 53.0374 76.0469 55.1338 74.6799C56.6833 77.7226 58.8822 80.2912 61.7305 82.3858C64.5788 84.4804 67.7575 85.8585 71.2666 86.5199C68.2588 84.8442 65.8662 82.5512 64.0889 79.6408C62.3115 76.7304 61.4229 73.5334 61.4229 70.0497C61.4229 64.8022 63.3483 60.3153 67.1992 56.5892C71.0501 52.863 75.6872 50.9999 81.1104 50.9999C85.1208 50.9999 88.7552 52.0582 92.0137 54.1749C95.2721 56.2915 97.6533 59.0696 99.1572 62.5092C96.0583 63.4793 93.3695 65.1109 91.0908 67.4039C88.8122 69.697 87.2171 72.3648 86.3057 75.4075C87.9007 73.1145 89.9743 71.2955 92.5264 69.9505C95.0784 68.6056 97.8356 67.9331 100.798 67.9331C105.629 67.9331 109.753 69.5867 113.171 72.894C116.589 76.2012 118.298 80.192 118.298 84.8663C118.298 89.5406 116.589 93.5313 113.171 96.8386C109.753 100.146 105.629 101.799 100.798 101.799ZM100.388 95.0527L86.7842 81.2283C86.4196 80.8314 85.9867 80.633 85.4854 80.633C84.9841 80.633 84.5511 80.8314 84.1865 81.2283L70.583 95.0527C70.2184 95.4495 70.1045 95.9677 70.2412 96.6071C70.3779 97.2465 70.6286 97.5662 70.9932 97.5662H78.9229V106.033C78.9229 107.223 79.3444 108.227 80.1875 109.042C81.0306 109.858 82.0674 110.266 83.2979 110.266H87.6729C88.9033 110.266 89.9401 109.858 90.7832 109.042C91.6263 108.227 92.0479 107.223 92.0479 106.033V97.5662H99.9775C100.342 97.5662 100.593 97.2465 100.729 96.6071C100.866 95.9677 100.752 95.4495 100.388 95.0527Z" fill="black"/>

</svg>